<svg xmlns="http://www.w3.org/2000/svg" xmlns:xlink="http://www.w3.org/1999/xlink" version="1.1" width="1820.2082962743696" height="1559.700061268818"><desc>title%20Sequenzdiagramm%20%C3%9CK%20223%20-%20QueueTransactionProcessingV2%0A%0Aparticipant%20NewBooking%0Aparticipant%20RegisterTransaction%0Aparticipant%20TransactionQueue%0Aparticipant%20StartWorker%0Aparticipant%20WorkLock%0Aparticipant%20DoWork%0A%0Aparticipant%20CreateNextBatch%0A%0Aparticipant%20ProcessNextBatch%0A%0Aparticipant%20BatchQueue%0A%0ANewBooking-%3ERegisterTransaction%3AStart%0Aactivate%20TransactionQueue%0Aactivate%20BatchQueue%0ARegisterTransaction-%3ETransactionQueue%3AEnqueue%20Transaction%0A%0Aactivate%20StartWorker%0ARegisterTransaction-%3EStartWorker%3ATry%20to%20start%20Worker%0Aactivate%20WorkLock%0AStartWorker-%3EWorkLock%3ATry%20to%20aquire%20Lock%0Aalt%20aquired%0Aactivate%20DoWork%0AStartWorker-%3EDoWork%3AStart%20new%20Thread%20for%20DoWork%0Adeactivate%20StartWorker%0Aloop%20while%20work%20availabe%0Aactivate%20CreateNextBatch%0ADoWork-%3ECreateNextBatch%3AProcess%20TransactionQueue%0Aactivate%20ProcessNextBatch%0ADoWork-%3EProcessNextBatch%3AProcess%20BatchQueue%0Aend%0ADoWork-%3EWorkLock%3ARelease%20Lock%0Adeactivate%20WorkLock%0Adeactivate%20DoWork%0Aactivate%20NextBatchLock%0AProcessNextBatch-%3ENextBatchLock%3ATry%20to%20aquire%20Lock%0Aalt%20aquired%0Aactivate%20BatchQueue%0AProcessNextBatch-%3EBatchQueue%3ATry%20Dequeue%0ABatchQueue-%3EProcessNextBatch%3ADequeue%20Batch%0Adeactivate%20BatchQueue%0Adatabase%20Database%0Aactivate%20Database%0AProcessNextBatch-%3EDatabase%3ARun%20Transactions%20in%20Batch%0AProcessNextBatch-%3ENextBatchLock%3ARelease%20Lock%0Adeactivate%20NextBatchLock%0Aelse%20locked%20(do%20nothing)%0Aend%0ADatabase-%3ENewBooking%3ACallback%20with%20Result%20of%20Transaction%0Adeactivate%20Database%0Adeactivate%20ProcessNextBatch%0Aloop%20while%20Queue%20not%20empty%20and%20BatchSize%20%3C%2010%0Aactivate%20TransactionQueue%0ACreateNextBatch-%3ETransactionQueue%3ATry%20Dequeue%0ATransactionQueue-%3ECreateNextBatch%3ADequeue%20Transaction%0Adeactivate%20TransactionQueue%0Aalt%20affectedIds%20not%20in%20Batch%0ACreateNextBatch-%3ECreateNextBatch%3AAdd%20to%20Batch%0Aelse%20%0ACreateNextBatch-%3ETransactionQueue%3AEnqueue%20Transaction%0Aend%0Aend%0ACreateNextBatch-%3EBatchQueue%3AEnqueue%20Batch%0Adeactivate%20CreateNextBatch%0Aelse%20locked%20(do%20nothing)%0Aend%0A%0A</desc><defs/><g><g/><g/><g/><g/><g/><g/><g/><g/><g/><g/><g/><g/><g/><g/><g/><g/><g/><g/><g/><g/><g/><g/><g/><g/><g/><g/><g/><g/><g/><g/><g/><g/><g/><g/><g/><g/><g/><g/><g/><g/><g/><g/><g/><g/><g/><g/><g/><g/><g/><g/><g/><g/><g/><g/><g/><g/><g/><g/><g/><g/><g/><g/><g/><g/><g/><g/><g/><g/><g/><g/><g/><g/><g/><g/><g/><g/><g/><g/><g/><g/><g/><g/><g/><g/><g/><g/><g/><g/><g/><g/><g/><g/><g/><g/><g/><g/><g/><g/><g/><g/><g/><g/><g/><g/><g/><g/><g/><g/><g/><g/><g/><g/><g/><g/><g><rect fill="white" stroke="none" x="0" y="0" width="1820" height="1559"/></g><g/><g><path fill="none" stroke="black" paint-order="fill stroke markers" d=" M 73.50841485 128.73625218881818 L 73.50841485 1559.700061268818" stroke-miterlimit="10" stroke-width="1.3612669416666667" stroke-dasharray="12.565541,5.445067766666667"/><path fill="none" stroke="black" paint-order="fill stroke markers" d=" M 231.76197946480858 128.73625218881818 L 231.76197946480858 1559.700061268818" stroke-miterlimit="10" stroke-width="1.3612669416666667" stroke-dasharray="12.565541,5.445067766666667"/><path fill="none" stroke="black" paint-order="fill stroke markers" d=" M 422.3089709043919 128.73625218881818 L 422.3089709043919 1559.700061268818" stroke-miterlimit="10" stroke-width="1.3612669416666667" stroke-dasharray="12.565541,5.445067766666667"/><path fill="none" stroke="black" paint-order="fill stroke markers" d=" M 573.089383358556 128.73625218881818 L 573.089383358556 1559.700061268818" stroke-miterlimit="10" stroke-width="1.3612669416666667" stroke-dasharray="12.565541,5.445067766666667"/><path fill="none" stroke="black" paint-order="fill stroke markers" d=" M 749.7710479813425 128.73625218881818 L 749.7710479813425 1559.700061268818" stroke-miterlimit="10" stroke-width="1.3612669416666667" stroke-dasharray="12.565541,5.445067766666667"/><path fill="none" stroke="black" paint-order="fill stroke markers" d=" M 898.4928127017852 128.73625218881818 L 898.4928127017852 1559.700061268818" stroke-miterlimit="10" stroke-width="1.3612669416666667" stroke-dasharray="12.565541,5.445067766666667"/><path fill="none" stroke="black" paint-order="fill stroke markers" d=" M 1135.4822623587513 128.73625218881818 L 1135.4822623587513 1559.700061268818" stroke-miterlimit="10" stroke-width="1.3612669416666667" stroke-dasharray="12.565541,5.445067766666667"/><path fill="none" stroke="black" paint-order="fill stroke markers" d=" M 1303.3743310018801 128.73625218881818 L 1303.3743310018801 1559.700061268818" stroke-miterlimit="10" stroke-width="1.3612669416666667" stroke-dasharray="12.565541,5.445067766666667"/><path fill="none" stroke="black" paint-order="fill stroke markers" d=" M 1464.336620014315 128.73625218881818 L 1464.336620014315 1559.700061268818" stroke-miterlimit="10" stroke-width="1.3612669416666667" stroke-dasharray="12.565541,5.445067766666667"/><path fill="none" stroke="black" paint-order="fill stroke markers" d=" M 1606.169293821018 128.73625218881818 L 1606.169293821018 1559.700061268818" stroke-miterlimit="10" stroke-width="1.3612669416666667" stroke-dasharray="12.565541,5.445067766666667"/><path fill="none" stroke="black" paint-order="fill stroke markers" d=" M 1722.1970764743696 128.73625218881818 L 1722.1970764743696 1559.700061268818" stroke-miterlimit="10" stroke-width="1.3612669416666667" stroke-dasharray="12.565541,5.445067766666667"/></g><g><path fill="none" stroke="none"/><g><path fill="white" stroke="black" paint-order="fill stroke markers" d=" M 14.632261078582019 84.63120327881819 L 132.38456862141797 84.63120327881819 L 132.38456862141797 128.73625218881818 L 14.632261078582019 128.73625218881818 L 14.632261078582019 84.63120327881819 Z" stroke-miterlimit="10" stroke-width="2.613632528" stroke-dasharray=""/></g><g><g/><text fill="black" stroke="none" font-family="sans-serif" font-size="11pt" font-style="normal" font-weight="normal" text-decoration="normal" x="32.355956659082025" y="112.40104888881817" text-anchor="start" dominant-baseline="alphabetic" xml:space="preserve">NewBooking</text></g><path fill="none" stroke="none"/><g><path fill="white" stroke="black" paint-order="fill stroke markers" d=" M 148.71977192141793 84.63120327881819 L 314.80418700819916 84.63120327881819 L 314.80418700819916 128.73625218881818 L 148.71977192141793 128.73625218881818 L 148.71977192141793 84.63120327881819 Z" stroke-miterlimit="10" stroke-width="2.613632528" stroke-dasharray=""/></g><g><g/><text fill="black" stroke="none" font-family="sans-serif" font-size="11pt" font-style="normal" font-weight="normal" text-decoration="normal" x="166.44346750191795" y="112.40104888881817" text-anchor="start" dominant-baseline="alphabetic" xml:space="preserve">RegisterTransaction</text></g><path fill="none" stroke="none"/><g><path fill="white" stroke="black" paint-order="fill stroke markers" d=" M 344.55307927897 84.63120327881819 L 500.0648625298138 84.63120327881819 L 500.0648625298138 128.73625218881818 L 344.55307927897 128.73625218881818 L 344.55307927897 84.63120327881819 Z" stroke-miterlimit="10" stroke-width="2.613632528" stroke-dasharray=""/></g><g><g/><text fill="black" stroke="none" font-family="sans-serif" font-size="11pt" font-style="normal" font-weight="normal" text-decoration="normal" x="362.27677485947004" y="112.40104888881817" text-anchor="start" dominant-baseline="alphabetic" xml:space="preserve">TransactionQueue</text></g><path fill="none" stroke="none"/><g><path fill="white" stroke="black" paint-order="fill stroke markers" d=" M 516.4000658298138 84.63120327881819 L 629.7787008872982 84.63120327881819 L 629.7787008872982 128.73625218881818 L 516.4000658298138 128.73625218881818 L 516.4000658298138 84.63120327881819 Z" stroke-miterlimit="10" stroke-width="2.613632528" stroke-dasharray=""/></g><g><g/><text fill="black" stroke="none" font-family="sans-serif" font-size="11pt" font-style="normal" font-weight="normal" text-decoration="normal" x="534.1237614103138" y="112.40104888881817" text-anchor="start" dominant-baseline="alphabetic" xml:space="preserve">StartWorker</text></g><path fill="none" stroke="none"/><g><path fill="white" stroke="black" paint-order="fill stroke markers" d=" M 699.5956846151979 84.63120327881819 L 799.946411347487 84.63120327881819 L 799.946411347487 128.73625218881818 L 699.5956846151979 128.73625218881818 L 699.5956846151979 84.63120327881819 Z" stroke-miterlimit="10" stroke-width="2.613632528" stroke-dasharray=""/></g><g><g/><text fill="black" stroke="none" font-family="sans-serif" font-size="11pt" font-style="normal" font-weight="normal" text-decoration="normal" x="717.3193801956979" y="112.40104888881817" text-anchor="start" dominant-baseline="alphabetic" xml:space="preserve">WorkLock</text></g><path fill="none" stroke="none"/><g><path fill="white" stroke="black" paint-order="fill stroke markers" d=" M 854.4305398507773 84.63120327881819 L 942.555085552793 84.63120327881819 L 942.555085552793 128.73625218881818 L 854.4305398507773 128.73625218881818 L 854.4305398507773 84.63120327881819 Z" stroke-miterlimit="10" stroke-width="2.613632528" stroke-dasharray=""/></g><g><g/><text fill="black" stroke="none" font-family="sans-serif" font-size="11pt" font-style="normal" font-weight="normal" text-decoration="normal" x="872.1542354312774" y="112.40104888881817" text-anchor="start" dominant-baseline="alphabetic" xml:space="preserve">DoWork</text></g><path fill="none" stroke="none"/><g><path fill="white" stroke="black" paint-order="fill stroke markers" d=" M 1061.9425496273725 84.63120327881819 L 1209.0219750901304 84.63120327881819 L 1209.0219750901304 128.73625218881818 L 1061.9425496273725 128.73625218881818 L 1061.9425496273725 84.63120327881819 Z" stroke-miterlimit="10" stroke-width="2.613632528" stroke-dasharray=""/></g><g><g/><text fill="black" stroke="none" font-family="sans-serif" font-size="11pt" font-style="normal" font-weight="normal" text-decoration="normal" x="1079.6662452078724" y="112.40104888881817" text-anchor="start" dominant-baseline="alphabetic" xml:space="preserve">CreateNextBatch</text></g><path fill="none" stroke="none"/><g><path fill="white" stroke="black" paint-order="fill stroke markers" d=" M 1225.3571783901302 84.63120327881819 L 1381.3914836136303 84.63120327881819 L 1381.3914836136303 128.73625218881818 L 1225.3571783901302 128.73625218881818 L 1225.3571783901302 84.63120327881819 Z" stroke-miterlimit="10" stroke-width="2.613632528" stroke-dasharray=""/></g><g><g/><text fill="black" stroke="none" font-family="sans-serif" font-size="11pt" font-style="normal" font-weight="normal" text-decoration="normal" x="1243.0808739706301" y="112.40104888881817" text-anchor="start" dominant-baseline="alphabetic" xml:space="preserve">ProcessNextBatch</text></g><path fill="none" stroke="none"/><g><path fill="white" stroke="black" paint-order="fill stroke markers" d=" M 1405.8613222609636 84.63120327881819 L 1522.8119177676667 84.63120327881819 L 1522.8119177676667 128.73625218881818 L 1405.8613222609636 128.73625218881818 L 1405.8613222609636 84.63120327881819 Z" stroke-miterlimit="10" stroke-width="2.613632528" stroke-dasharray=""/></g><g><g/><text fill="black" stroke="none" font-family="sans-serif" font-size="11pt" font-style="normal" font-weight="normal" text-decoration="normal" x="1423.5850178414635" y="112.40104888881817" text-anchor="start" dominant-baseline="alphabetic" xml:space="preserve">BatchQueue</text></g><path fill="none" stroke="none"/><g><path fill="white" stroke="black" paint-order="fill stroke markers" d=" M 1539.1471210676666 84.63120327881819 L 1673.1914665743698 84.63120327881819 L 1673.1914665743698 128.73625218881818 L 1539.1471210676666 128.73625218881818 L 1539.1471210676666 84.63120327881819 Z" stroke-miterlimit="10" stroke-width="2.613632528" stroke-dasharray=""/></g><g><g/><text fill="black" stroke="none" font-family="sans-serif" font-size="11pt" font-style="normal" font-weight="normal" text-decoration="normal" x="1556.8708166481665" y="112.40104888881817" text-anchor="start" dominant-baseline="alphabetic" xml:space="preserve">NextBatchLock</text></g><g><path fill="white" stroke="black" paint-order="fill stroke markers" d=" M 1698.3476796563696 96.71925372081819 L 1698.3476796563696 62.41532679081819 L 1746.0464732923697 62.41532679081819 L 1746.0464732923697 96.71925372081819" stroke-miterlimit="10" stroke-width="2.7769845610000004" stroke-dasharray=""/><path fill="white" stroke="black" paint-order="fill stroke markers" d=" M 1746.0464732923697 61.22285694991819 L 1746.045280832466 61.33066749483481 L 1746.041703572 61.43846725878678 L 1746.0357418686945 61.546245461887544 L 1746.0273963187153 61.65399132640659 L 1746.01666775661 61.761694077847274 L 1746.0035572552263 61.86934294602419 L 1745.988066125603 61.976927166140236 L 1745.9701959168403 62.084435979863045 L 1745.9499484159444 62.19185863640084 L 1745.927325647648 62.299184393577484 L 1745.9023298742097 62.4064025189067 L 1745.8749635951858 62.51350229066531 L 1745.8452295471811 62.62047299896537 L 1745.813130703576 62.7273039468252 L 1745.7786702742278 62.83398445123905 L 1745.741851705151 62.94050384424536 L 1745.7026786781719 63.04685147399361 L 1745.66115511056 63.15301670580944 L 1745.617285154638 63.25898892325815 L 1745.5710731973647 63.364757529206294 L 1745.5225238598973 63.47031194688142 L 1745.4716419971294 63.575641620929716 L 1745.4184326972043 63.68073601847156 L 1745.3629012810081 63.78558463015478 L 1745.3050533016362 63.89017697120557 L 1745.244894543838 63.994502582477 L 1745.1824310234392 64.09855103149486 L 1745.1176689867402 64.20231191350096 L 1745.05061490989 64.3057748524936 L 1744.981275498241 64.40892950226505 L 1744.9096576856766 64.51176554743633 L 1744.835768633918 64.61427270448858 L 1744.7596157318087 64.71644072279157 L 1744.681206594576 64.81825938562858 L 1744.600549063068 64.91971851121816 L 1744.5176512029705 65.02080795373233 L 1744.4325213040006 65.12151760431107 L 1744.3451678790773 65.22183739207324 L 1744.25559966347 65.32175728512367 L 1744.1638256139258 65.42126729155632 L 1744.0698549077736 65.52035746045347 L 1743.973696942005 65.6190178828808 L 1743.8753613323368 65.71723869287828 L 1743.774857912248 65.81501006844678 L 1743.6721967319968 65.91232223253022 L 1743.5673880576157 66.00916545399325 L 1743.460442369885 66.10553004859446 L 1743.351370363284 66.20140637995469 L 1743.2401829449227 66.29678486052069 L 1743.1268912334501 66.39165595252388 L 1743.0115065579432 66.48601016893414 L 1742.8940404567732 66.57983807440844 L 1742.7745046764524 66.67313028623443 L 1742.652911170459 66.76587747526865 L 1742.5292720980426 66.85807036686953 L 1742.4035998230072 66.94969974182469 L 1742.2759069124756 67.04075643727302 L 1742.1462061356328 67.13123134762085 L 1742.0145104624478 67.22111542545254 L 1741.8808330623785 67.3103996824352 L 1741.7451873030536 67.39907519021754 L 1741.6075867489358 67.4871330813227 L 1741.4680451599659 67.57456455003492 L 1741.3265764901867 67.6613608532802 L 1741.1831948863469 67.74751331150055 L 1741.0379146864875 67.83301330952195 L 1740.8907504185079 67.91785229741582 L 1740.7417167987116 68.00202179135408 L 1740.5908287303369 68.08551337445749 L 1740.4381013020645 68.1683186976373 L 1740.28354978651 68.25042948043021 L 1740.1271896386966 68.33183751182635 L 1739.9690364945084 68.41253465109044 L 1739.8091061691282 68.4925128285758 L 1739.647414655455 68.5717640465313 L 1739.4839781225055 68.65028037990122 L 1739.318812913797 68.72805397711764 L 1739.1519355457128 68.80507706088565 L 1738.9833627058504 68.88134192896105 L 1738.8131112513531 68.95684095492061 L 1738.641198207225 69.03156658892462 L 1738.467640764627 69.10551135847197 L 1738.2924562791586 69.17866786914732 L 1738.1156622691226 69.25102880536058 L 1737.9372764137725 69.3225869310784 L 1737.7573165515453 69.39333509054786 L 1737.5758006782771 69.46326620901198 L 1737.3927469454043 69.53237329341717 L 1737.2081736581472 69.60064943311258 L 1737.022099273681 69.66808780054113 L 1736.8345423992891 69.7346816519223 L 1736.6455217905025 69.80042432792644 L 1736.4550563492246 69.86530925434072 L 1736.2631651218408 69.92932994272657 L 1736.069867297314 69.9924799910685 L 1735.8751822052654 70.05475308441433 L 1735.6791293140423 70.1161429955066 L 1735.4817282287702 70.17664358540536 L 1735.282998689393 70.23624880410202 L 1735.0829605686993 70.29495269112441 L 1734.8816338703343 70.35274937613272 L 1734.6790387268002 70.40963307950663 L 1734.4751953974426 70.46559811292322 L 1734.270124266424 70.52063887992576 L 1734.0638458406875 70.57474987648341 L 1733.8563807479031 70.62792569154163 L 1733.6477497344074 70.68016100756323 L 1733.4379736631279 70.73145060106012 L 1733.2270735114969 70.78178934311569 L 1733.015070369354 70.8311721998977 L 1732.8019854368363 70.8795942331616 L 1732.5878400222598 70.92705060074444 L 1732.3726555399876 70.973536557049 L 1732.1564535082885 71.01904745351838 L 1731.9392555471852 71.06357873910088 L 1731.721083376293 71.10712596070502 L 1731.5019588126477 71.14968476364494 L 1731.2819037685224 71.19125089207583 L 1731.0609402492382 71.23182018941947 L 1730.8390903509633 71.27138859877994 L 1730.6163762585022 71.30995216334925 L 1730.3928202430789 71.34750702680313 L 1730.1684446601082 71.38404943368649 L 1729.9432719469619 71.4195757297891 L 1729.7173246207235 71.45408236251096 L 1729.4906252759374 71.48756588121756 L 1729.2631965823489 71.52002293758491 L 1729.0350612826383 71.55145028593446 L 1728.8062421901448 71.58184478355753 L 1728.5767621865875 71.61120339102969 L 1728.3466442197755 71.63952317251467 L 1728.1159113013134 71.66680129605793 L 1727.884586504301 71.69303503386982 L 1727.6526929610252 71.71822176259843 L 1727.420253860647 71.7423589635919 L 1727.187292446883 71.7654442231502 L 1726.95383201568 71.78747523276665 L 1726.719895912887 71.80844978935863 L 1726.4855075319192 71.82836579548797 L 1726.2506903114192 71.84722125957065 L 1726.0154677329135 71.86501429607597 L 1725.7798633184639 71.8817431257151 L 1725.5439006283157 71.89740607561903 L 1725.307603258541 71.91200157950583 L 1725.0709948386798 71.92552817783725 L 1724.8340990293773 71.93798451796474 L 1724.5969395200168 71.94936935426468 L 1724.3595400263516 71.95968154826289 L 1724.1219242881332 71.96892006874862 L 1723.8841160667375 71.97708399187748 L 1723.6461391427886 71.98417250126396 L 1723.4080173137802 71.99018488806304 L 1723.1697743916968 71.99512055104105 L 1722.9314342006326 71.99897899663581 L 1722.6930205744075 72.00175983900598 L 1722.454557354186 72.00346280006961 L 1722.2160683860907 72.00408770953204 L 1721.9775775188202 72.00363450490285 L 1721.7391086012624 72.0021032315021 L 1721.5006854801102 71.99949404245586 L 1721.262331997477 71.9958071986809 L 1721.0240719885128 71.99104306885846 L 1720.7859292790195 71.98520212939759 L 1720.5479276830697 71.97828496438737 L 1720.3100910006249 71.97029226553852 L 1720.072443015155 71.96122483211428 L 1719.8350074912605 71.95108357085043 L 1719.5978081722958 71.93986949586466 L 1719.3608687779954 71.92758372855508 L 1719.124213002101 71.91422749748824 L 1718.8878645099933 71.89980213827607 L 1718.6518469363243 71.8843090934425 L 1718.4161838826547 71.86774991227908 L 1718.1808989150936 71.85012625069015 L 1717.9460155619415 71.83143987102717 L 1717.7115573113383 71.81169264191253 L 1717.4775476089133 71.79088653805269 L 1717.244009855442 71.7690236400407 L 1717.010967404505 71.74610613414815 L 1716.7784435601534 71.72213631210651 L 1716.5464615745775 71.69711657087802 L 1716.3150446457828 71.67104941241597 L 1716.0842159152694 71.64393744341446 L 1715.8539984657177 71.6157833750478 L 1715.6244153186813 71.58659002269937 L 1715.395489432283 71.55636030568009 L 1715.167243698921 71.52509724693644 L 1714.9397009429783 71.49280397274828 L 1714.7128839185411 71.45948371241609 L 1714.4868153071225 71.42513979793813 L 1714.2615177153955 71.38977566367726 L 1714.0370136729316 71.35339484601741 L 1713.8133256299477 71.31600098301004 L 1713.5904759550617 71.27759781401028 L 1713.3684869330557 71.23818917930303 L 1713.1473807626464 71.19777901971894 L 1712.9271795542672 71.15637137624027 L 1712.7079053278549 71.11397038959687 L 1712.4895800106497 71.07058029985207 L 1712.2722254350015 71.02620544597868 L 1712.0558633361863 70.98085026542512 L 1711.840515350234 70.93451929367163 L 1711.6262030117637 70.8872171637768 L 1711.4129477518306 70.8389486059142 L 1711.200770895783 70.78971844689937 L 1710.9896936611299 70.7395316097072 L 1710.7797371554186 70.6883931129796 L 1710.5709223741246 70.6363080705236 L 1710.3632701985523 70.58328169080006 L 1710.156801393746 70.52931927640276 L 1709.9515366064145 70.47442622352818 L 1709.747496362865 70.41860802143584 L 1709.544701066952 70.36187025189946 L 1709.3431709980364 70.3042185886487 L 1709.1429263089565 70.24565879680183 L 1708.943987024015 70.18619673228926 L 1708.7463730369743 70.12583834126788 L 1708.5501041090683 70.06458965952649 L 1708.3551998670266 70.00245681188221 L 1708.1616798011105 69.93944601156807 L 1707.9695632631658 69.87556355961155 L 1707.778869464686 69.81081584420461 L 1707.589617474892 69.74520934006487 L 1707.4018262188251 69.67875060778805 L 1707.2155144754545 69.61144629319199 L 1707.030700875799 69.54330312665208 L 1706.847403901065 69.47432792242817 L 1706.6656418807968 69.40452757798322 L 1706.4854329910452 69.3339090732935 L 1706.306795252549 69.26247947015062 L 1706.129746528933 69.19024591145539 L 1705.9543045249222 69.11721562050347 L 1705.7804867845707 69.0433959002631 L 1705.6083106895078 68.96879413264479 L 1705.4377934571996 68.89341777776313 L 1705.268952139227 68.81727437319081 L 1705.101803619581 68.74037153320482 L 1704.9363646129746 68.66271694802508 L 1704.7726516631706 68.58431838304537 L 1704.6106811413272 68.5051836780569 L 1704.4504692443618 68.4253207464642 L 1704.2920319933307 68.34473757449386 L 1704.135385231827 68.26344222039596 L 1703.980544624396 68.18144281363814 L 1703.8275256549698 68.09874755409275 L 1703.6763436253175 68.01536471121685 L 1703.5270136535162 67.9313026232252 L 1703.3795506724387 67.84656969625658 L 1703.2339694282603 67.76117440353308 L 1703.0902844789837 67.67512528451279 L 1702.9485101929845 67.5884309440359 L 1702.808660747573 67.50110005146425 L 1702.6707501275773 67.41314133981427 L 1702.5347921239443 67.32456360488388 L 1702.4008003323613 67.23537570437271 L 1702.2687881518955 67.14558655699653 L 1702.1387687836552 67.05520514159522 L 1702.0107552294687 66.96424049623502 L 1701.8847602905848 66.87270171730466 L 1701.7607965663924 66.78059795860575 L 1701.6388764531607 66.68793843043741 L 1701.5190121427993 66.59473239867523 L 1701.4012156216393 66.50098918384472 L 1701.2854986692348 66.40671816018926 L 1701.1718728571848 66.31192875473263 L 1701.0603495479752 66.2166304463364 L 1700.9509398938446 66.120832764752 L 1700.843654835667 66.02454528966774 L 1700.7385051018587 65.92777764975091 L 1700.6355012073057 65.83053952168484 L 1700.5346534523114 65.73284062920132 L 1700.4359719215672 65.63469074210818 L 1700.3394664831444 65.53609967531233 L 1700.2451467875057 65.4370772878383 L 1700.1530222665428 65.33763348184232 L 1700.0631021326308 65.23777820162212 L 1699.9753953777076 65.13752143262249 L 1699.8899107723764 65.03687320043682 L 1699.806656865026 64.93584356980442 L 1699.7256419809783 64.83444264360419 L 1699.6468742216534 64.73268056184422 L 1699.570361463762 64.63056750064791 L 1699.4961113585164 64.52811367123628 L 1699.4241313308646 64.42532931890689 L 1699.35442857875 64.32222472200931 L 1699.2870100723894 64.21881019091732 L 1699.2218825535774 64.11509606699785 L 1699.1590525350116 64.01109272157687 L 1699.0985262996414 63.90681055490224 L 1699.04030990004 63.80225999510374 L 1698.9844091577986 63.697451497150205 L 1698.9308296629451 63.59239554180411 L 1698.8795767733845 63.48710263457343 L 1698.8306556143625 63.381583304661156 L 1698.7840710779549 63.27584810391234 L 1698.7398278225758 63.16990760575894 L 1698.6979302725144 63.06377240416249 L 1698.6583826174906 62.95745311255472 L 1698.621188812237 62.85096036277616 L 1698.586352576103 62.744304804013076 L 1698.5538773926835 62.63749710173245 L 1698.5237665094694 62.530547936615505 L 1698.4960229375242 62.423468003489624 L 1698.4706494511818 62.316268010258895 L 1698.44764858777 62.208958676833305 L 1698.4270226473554 62.10155073405677 L 1698.4087736925153 61.99405492263407 L 1698.3929035481299 61.88648199205676 L 1698.3794138012004 61.77884269952825 L 1698.3683058006902 61.6711478088881 L 1698.35958065739 61.56340808953563 L 1698.3532392438071 61.45563431535299 L 1698.3492821940774 61.34783726362778 L 1698.3477099039028 61.24002771397536 L 1698.3485225305108 61.13221644726084 L 1698.3517199926393 61.02441424452105 L 1698.357301970545 60.916631885886424 L 1698.3652679060347 60.808880149503025 L 1698.3756170025215 60.70116981045468 L 1698.3883482251042 60.59351163968555 L 1698.4034603006714 60.48591640292299 L 1698.420951718028 60.378394859601016 L 1698.4408207280467 60.27095776178435 L 1698.4630653438435 60.163615853093255 L 1698.4876833409749 60.05637986762915 L 1698.514672257662 59.949260528901206 L 1698.5440293950353 59.84226854875404 L 1698.5757518174057 59.7354146262965 L 1698.6098363525575 59.62870944683179 L 1698.6462795920656 59.52216368078894 L 1698.6850778916364 59.41578798265577 L 1698.726227371472 59.30959298991343 L 1698.7697239166591 59.203589321972714 L 1698.8155631775792 59.09778757911208 L 1698.8637405703444 58.992198341417634 L 1698.9142512772555 58.88683216772516 L 1698.9670902472842 58.78169959456423 L 1699.0222521965773 58.67681113510454 L 1699.0797316089859 58.57217727810464 L 1699.1395227366168 58.46780848686303 L 1699.2016196004067 58.36371519817185 L 1699.2660159907211 58.25990782127324 L 1699.3327054679748 58.15639673681838 L 1699.4016813632757 58.053192295829454 L 1699.4729367790915 57.950304818664556 L 1699.5464645899401 57.84774459398567 L 1699.6222574431017 57.745521877729786 L 1699.7003077593542 57.64364689208335 L 1699.780607733731 57.54212982446004 L 1699.8631493363014 57.44098082648201 L 1699.9479243129742 57.340210012964775 L 1700.034924186322 57.2398274609057 L 1700.1241402564306 57.13984320847635 L 1700.2155636017665 57.040267254018644 L 1700.309185080072 56.94110955504505 L 1700.4049953292772 56.84238002724283 L 1700.5029847684368 56.74408854348249 L 1700.6031435986886 56.646244932830506 L 1700.705461804233 56.54885897956639 L 1700.809929153335 56.45194042220433 L 1700.9165351993463 56.35549895251929 L 1701.0252692817517 56.25954421457787 L 1701.136120527233 56.16408580377391 L 1701.2490778507583 56.06913326586893 L 1701.3641299566893 55.974696096037604 L 1701.4812653399115 55.88078373791821 L 1701.600472286984 55.7874055826683 L 1701.7217388773115 55.694570968025594 L 1701.8450529843358 55.60228917737418 L 1701.9704022767494 55.51056943881623 L 1702.097774219727 55.41942092424918 L 1702.2271560761808 55.328852748448504 L 1702.3585349080329 55.23887396815633 L 1702.4918975775095 55.14949358117568 L 1702.6272307484548 55.0607205254708 L 1702.7645208876647 54.97256367827326 L 1702.9037542662395 54.88503185519433 L 1703.0449169609574 54.79813380934336 L 1703.1879948556666 54.71187823045254 L 1703.3329736426967 54.62627374400786 L 1703.47983882429 54.541328910386646 L 1703.6285757140506 54.45705222400146 L 1703.7791694384136 54.373452112450714 L 1703.9316049381318 54.290536935675895 L 1704.0858669697827 54.20831498512558 L 1704.2419401072914 54.12679448292632 L 1704.3998087434743 54.0459835810604 L 1704.5594570915991 53.965890360550645 L 1704.7208691869644 53.88652283065238 L 1704.8840288884946 53.80788892805245 L 1705.0489198803564 53.72999651607559 L 1705.2155256735873 53.652853383898076 L 1705.383829607747 53.57646724576885 L 1705.5538148525823 53.50084574023808 L 1705.7254644097106 53.42599642939328 L 1705.8987611143189 53.35192679810317 L 1706.0736876368815 53.278644253269164 L 1706.2502264848915 53.20615612308466 L 1706.4283600046117 53.13446965630228 L 1706.6080703828382 53.06359202150896 L 1706.7893396486832 52.99353030640911 L 1706.972149675371 52.924291517115876 L 1707.1564821820511 52.85588257745046 L 1707.3423187356268 52.78831032824984 L 1707.5296407525973 52.72158152668263 L 1707.7184295009174 52.65570284557336 L 1707.9086661018691 52.590680872735255 L 1708.1003315319513 52.52652211031142 L 1708.2934066247803 52.463232974124615 L 1708.487872073008 52.40081979303573 L 1708.6837084302515 52.33928880831086 L 1708.8808961130385 52.278646172997206 L 1709.0794154027647 52.21889795130775 L 1709.2792464476665 52.160050118014894 L 1709.4803692648065 52.1021085578529 L 1709.6827637420702 52.045079064929524 L 1709.8864096401783 51.98896734214652 L 1710.0912865947112 51.933779000629414 L 1710.2973741181438 51.87951955916637 L 1710.5046516018958 51.826194443656306 L 1710.7130983183913 51.77380898656634 L 1710.9226934231324 51.72236842639853 L 1711.1334159567834 51.67187790716602 L 1711.3452448472665 51.622342477878675 L 1711.558158911869 51.57376709203812 L 1711.772136859362 51.526156607142475 L 1711.9871572921293 51.47951578420055 L 1712.2031987083064 51.43384928725578 L 1712.4202395039322 51.38916168291979 L 1712.6382579751073 51.34545743991578 L 1712.857232320167 51.302740928631636 L 1713.0771406418587 51.261016420682886 L 1713.297960949534 51.220288088485546 L 1713.5196711613455 51.18056000483891 L 1713.7422491064574 51.14183614251822 L 1713.9656725272605 51.10412037387746 L 1714.1899190815986 51.06741647046204 L 1714.4149663450037 51.03172810263173 L 1714.6407918129364 50.99705883919358 L 1714.8673729030384 50.96341214704502 L 1715.0946869573895 50.930791390827245 L 1715.3227112447737 50.899199832588685 L 1715.551422962952 50.86864063145883 L 1715.7807992409437 50.83911684333235 L 1716.0108171413117 50.81063142056343 L 1716.2414536624578 50.78318721167063 L 1716.4726857409223 50.75678696105195 L 1716.7044902536898 50.731433308710464 L 1716.9368440205021 50.70712878999027 L 1717.1697238061763 50.683875835323 L 1717.403106322928 50.66167676998473 L 1717.6369682326995 50.6405338138635 L 1717.8712861494953 50.6204490812373 L 1718.106036641719 50.60142458056266 L 1718.3411962345165 50.583462214273794 L 1718.5767414121249 50.566563778592354 L 1718.8126486202225 50.55073096334783 L 1719.0488942682853 50.53596535180856 L 1719.285454731945 50.52226842052339 L 1719.5223063553528 50.50964153917403 L 1719.7594254535434 50.49808597043808 L 1719.996788314805 50.48760286986282 L 1720.2343712030486 50.47819328574954 L 1720.472150360184 50.46985815904882 L 1720.7101020084933 50.462598323266384 L 1720.9482023530102 50.456414504379765 L 1721.1864275838982 50.45130732076569 L 1721.4247538788331 50.44727728313828 L 1721.6631574053843 50.444324794497916 L 1721.901614323397 50.44245015009101 L 1722.140100787379 50.44165353738045 L 1722.378592948882 50.44193503602685 L 1722.617066958889 50.443294617880554 L 1722.8554989701972 50.445732146984525 L 1723.0938651398046 50.44924737958788 L 1723.332141631293 50.45383996417029 L 1723.5703046172114 50.459509441477124 L 1723.80833028146 50.46625524456538 L 1724.0461948216705 50.474076698860365 L 1724.2838744515873 50.48297302222316 L 1724.5213454034451 50.49294332502887 L 1724.7585839303472 50.50398661025549 L 1724.9955663086382 50.51610177358371 L 1725.2322688402778 50.52928760350731 L 1725.46866785521 50.54354278145426 L 1725.7047397137305 50.55886588191867 L 1725.9404608088503 50.575255372603245 L 1726.175807568656 50.592709614572584 L 1726.4107564586677 50.61122686241703 L 1726.6452839841927 50.630805264427224 L 1726.8793666926733 50.651442862779284 L 1727.112981176034 50.67313759373059 L 1727.3461040730213 50.695887287826096 L 1727.5787120715393 50.71968967011537 L 1727.8107819109823 50.74454236038002 L 1728.04229038456 50.77044287337172 L 1728.2732143416172 50.797388619060754 L 1728.5035306899515 50.825376902895016 L 1728.7332163981193 50.85440492606945 L 1728.9622484977417 50.88446978580591 L 1729.1906040857994 50.9155684756435 L 1729.418260326924 50.947697885739125 L 1729.6451944556807 50.980854803178566 L 1729.8713837788462 51.01503591229771 L 1730.0968056776762 51.05023779501413 L 1730.3214376101694 51.08645693116888 L 1730.545257113319 51.12368969887854 L 1730.7682418053614 51.16193237489736 L 1730.9903693880135 51.201181134989596 L 1731.211617648702 51.241432054311964 L 1731.4319644627851 51.28268110780607 L 1731.651387795765 51.32492417060092 L 1731.8698657054915 51.368157018425464 L 1732.0873763443553 51.41237532803093 L 1732.3038979614741 51.45757467762322 L 1732.5194089048666 51.503750547305025 L 1732.7338876236179 51.55089831952786 L 1732.9473126700348 51.5990132795538 L 1733.1596627017907 51.64809061592693 L 1733.3709164840593 51.69812542095451 L 1733.5810528916386 51.749112691197745 L 1733.7900509110627 51.801047327972086 L 1733.9978896427037 51.85392413785714 L 1734.2045483028621 51.90773783321599 L 1734.4100062258437 51.962483032723924 L 1734.6142428660278 52.01815426190663 L 1734.8172377999201 52.07474595368758 L 1735.0189707281968 52.132252448944755 L 1735.2194214777328 52.190667997076545 L 1735.4185700036205 52.24998675657682 L 1735.616396391173 52.310202795619055 L 1735.8128808579168 52.371310092649544 L 1736.0080037555683 52.43330253698949 L 1736.201745572001 52.49617392944612 L 1736.3940869331946 52.559917982932596 L 1736.585008605173 52.62452832309667 L 1736.7744914959283 52.68999848895818 L 1736.9625166573292 52.7563219335551 L 1737.1490652870161 52.823492024598224 L 1737.334118730282 52.89150204513444 L 1737.5176584819362 52.960345194218355 L 1737.699666188157 53.03001458759244 L 1737.8801236483248 53.10050325837541 L 1738.0590128168446 53.171804157758935 L 1738.2363158049486 53.243910155712484 L 1738.4120148824852 53.31681404169635 L 1738.5860924796937 53.39050852538269 L 1738.7585311889588 53.46498623738456 L 1738.9293137665538 53.5402397299928 L 1739.0984231343632 53.61626147792087 L 1739.2658423815908 53.69304387905734 L 1739.4315547664517 53.770579255226075 L 1739.5955437178454 53.848859852954064 L 1739.7577928370133 53.92787784424677 L 1739.918285899179 54.00762532737092 L 1740.0770068551697 54.08809432764465 L 1740.2339398330223 54.16927679823499 L 1740.3890691395698 54.251164620962534 L 1740.5423792620104 54.33374960711325 L 1740.6938548694602 54.41702349825734 L 1740.8434808144843 54.500977967075094 L 1740.9912421346132 54.58560461818958 L 1741.1371240538376 54.670894989006214 L 1741.2811119840876 54.75684055055899 L 1741.4231915266896 54.84343270836337 L 1741.5633484738084 54.93066280327574 L 1741.7015688098656 55.0185221123593 L 1741.837838712943 55.107001849756344 L 1741.9721445561638 55.196093167566886 L 1742.1044729090556 55.28578715673337 L 1742.2348105388933 55.37607484793163 L 1742.3631444120226 55.46694721246779 L 1742.4894616951633 55.55839516318112 L 1742.613749756692 55.65040955535275 L 1742.7359961679065 55.742981187620146 L 1742.8561887042672 55.83610080289723 L 1742.9743153466206 55.92975908930006 L 1743.0903642824014 56.02394668107806 L 1743.2043239068123 56.11865415955053 L 1743.3161828239859 56.213872054048544 L 1743.4259298481238 56.30959084286201 L 1743.5335540046149 56.405800954191804 L 1743.6390445311333 56.50249276710697 L 1743.7423908787146 56.5996566125068 L 1743.8435827128094 56.69728277408771 L 1743.9426099143193 56.79536148931491 L 1744.0394625806064 56.89388295039859 L 1744.1341310264847 56.99283730527477 L 1744.2266057851887 57.09221465859041 L 1744.3168776093194 57.19200507269298 L 1744.4049374717697 57.29219856862425 L 1744.490776566627 57.39278512711811 L 1744.5743863100527 57.49375468960253 L 1744.6557583411427 57.59509715920541 L 1744.7348845227616 57.69680240176424 L 1744.811756942357 57.79886024683951 L 1744.8863679127512 57.90126048873177 L 1744.9587099729092 58.003992887502164 L 1745.0287758886855 58.10704716999642 L 1745.0965586535465 58.21041303087217 L 1745.1620514892725 58.31408013362946 L 1745.2252478466344 58.41803811164441 L 1745.286141406049 58.52227656920584 L 1745.3447260782114 58.62678508255487 L 1745.400996004703 58.731553200927245 L 1745.4549455585784 58.83657044759845 L 1745.5065693449264 58.94182632093131 L 1745.5558622014123 59.04731029542622 L 1745.6028191987907 59.153011822773635 L 1745.6474356414017 59.25892033290889 L 1745.6897070676378 59.36502523506925 L 1745.7296292503916 59.471315918852895 L 1745.7671981974781 59.57778175528004 L 1745.8024101520343 59.684412097855756 L 1745.8352615928936 59.79119628363465 L 1745.8657492349394 59.89812363428712 L 1745.8938700294332 60.005183457167206 L 1745.9196211643186 60.11236504638185 L 1745.9430000645036 60.21965768386144 L 1745.964004392118 60.327050640431644 L 1745.9826320467462 60.43453317688629 L 1745.9988811656385 60.5420945450613 L 1746.0127501238965 60.6497239889095 L 1746.0242375346356 60.757410745576195 L 1746.0333422491249 60.86514404647545 L 1746.0400633569 60.972913118366954 L 1746.0444001858561 61.08070718443333 L 1746.0463523023136 61.188515465357796 M 1746.0464732923697 95.52678387991818 L 1746.045280832466 95.6345944248348 L 1746.041703572 95.74239418878678 L 1746.0357418686945 95.85017239188754 L 1746.0273963187153 95.95791825640659 L 1746.01666775661 96.06562100784727 L 1746.0035572552263 96.1732698760242 L 1745.988066125603 96.28085409614023 L 1745.9701959168403 96.38836290986303 L 1745.9499484159444 96.49578556640084 L 1745.927325647648 96.60311132357748 L 1745.9023298742097 96.7103294489067 L 1745.8749635951858 96.8174292206653 L 1745.8452295471811 96.92439992896537 L 1745.813130703576 97.0312308768252 L 1745.7786702742278 97.13791138123905 L 1745.741851705151 97.24443077424536 L 1745.7026786781719 97.35077840399362 L 1745.66115511056 97.45694363580944 L 1745.617285154638 97.56291585325815 L 1745.5710731973647 97.66868445920629 L 1745.5225238598973 97.77423887688141 L 1745.4716419971294 97.8795685509297 L 1745.4184326972043 97.98466294847155 L 1745.3629012810081 98.08951156015478 L 1745.3050533016362 98.19410390120557 L 1745.244894543838 98.29842951247699 L 1745.1824310234392 98.40247796149485 L 1745.1176689867402 98.50623884350097 L 1745.05061490989 98.60970178249359 L 1744.981275498241 98.71285643226504 L 1744.9096576856766 98.81569247743631 L 1744.835768633918 98.91819963448859 L 1744.7596157318087 99.02036765279156 L 1744.681206594576 99.12218631562857 L 1744.600549063068 99.22364544121817 L 1744.5176512029705 99.32473488373233 L 1744.4325213040006 99.42544453431107 L 1744.3451678790773 99.52576432207324 L 1744.25559966347 99.62568421512367 L 1744.1638256139258 99.72519422155631 L 1744.0698549077736 99.82428439045346 L 1743.973696942005 99.92294481288079 L 1743.8753613323368 100.02116562287829 L 1743.774857912248 100.11893699844678 L 1743.6721967319968 100.2162491625302 L 1743.5673880576157 100.31309238399325 L 1743.460442369885 100.40945697859446 L 1743.351370363284 100.50533330995468 L 1743.2401829449227 100.60071179052068 L 1743.1268912334501 100.69558288252388 L 1743.0115065579432 100.78993709893413 L 1742.8940404567732 100.88376500440843 L 1742.7745046764524 100.97705721623441 L 1742.652911170459 101.06980440526866 L 1742.5292720980426 101.16199729686952 L 1742.4035998230072 101.25362667182469 L 1742.2759069124756 101.34468336727302 L 1742.1462061356328 101.43515827762084 L 1742.0145104624478 101.52504235545253 L 1741.8808330623785 101.61432661243519 L 1741.7451873030536 101.70300212021755 L 1741.6075867489358 101.7910600113227 L 1741.4680451599659 101.87849148003492 L 1741.3265764901867 101.9652877832802 L 1741.1831948863469 102.05144024150056 L 1741.0379146864875 102.13694023952193 L 1740.8907504185079 102.22177922741581 L 1740.7417167987116 102.30594872135407 L 1740.5908287303369 102.38944030445748 L 1740.4381013020645 102.47224562763729 L 1740.28354978651 102.5543564104302 L 1740.1271896386966 102.63576444182635 L 1739.9690364945084 102.71646158109044 L 1739.8091061691282 102.79643975857579 L 1739.647414655455 102.8756909765313 L 1739.4839781225055 102.95420730990122 L 1739.318812913797 103.03198090711763 L 1739.1519355457128 103.10900399088564 L 1738.9833627058504 103.18526885896105 L 1738.8131112513531 103.2607678849206 L 1738.641198207225 103.33549351892461 L 1738.467640764627 103.40943828847196 L 1738.2924562791586 103.48259479914732 L 1738.1156622691226 103.55495573536056 L 1737.9372764137725 103.6265138610784 L 1737.7573165515453 103.69726202054787 L 1737.5758006782771 103.76719313901197 L 1737.3927469454043 103.83630022341715 L 1737.2081736581472 103.90457636311257 L 1737.022099273681 103.97201473054113 L 1736.8345423992891 104.03860858192229 L 1736.6455217905025 104.10435125792642 L 1736.4550563492246 104.1692361843407 L 1736.2631651218408 104.23325687272656 L 1736.069867297314 104.29640692106851 L 1735.8751822052654 104.35868001441433 L 1735.6791293140423 104.4200699255066 L 1735.4817282287702 104.48057051540535 L 1735.282998689393 104.54017573410202 L 1735.0829605686993 104.5988796211244 L 1734.8816338703343 104.65667630613272 L 1734.6790387268002 104.71356000950664 L 1734.4751953974426 104.7695250429232 L 1734.270124266424 104.82456580992574 L 1734.0638458406875 104.87867680648341 L 1733.8563807479031 104.93185262154162 L 1733.6477497344074 104.98408793756322 L 1733.4379736631279 105.0353775310601 L 1733.2270735114969 105.08571627311568 L 1733.015070369354 105.13509912989768 L 1732.8019854368363 105.1835211631616 L 1732.5878400222598 105.23097753074444 L 1732.3726555399876 105.27746348704899 L 1732.1564535082885 105.32297438351839 L 1731.9392555471852 105.36750566910086 L 1731.721083376293 105.41105289070501 L 1731.5019588126477 105.45361169364494 L 1731.2819037685224 105.49517782207583 L 1731.0609402492382 105.53574711941947 L 1730.8390903509633 105.57531552877992 L 1730.6163762585022 105.61387909334925 L 1730.3928202430789 105.65143395680312 L 1730.1684446601082 105.68797636368647 L 1729.9432719469619 105.72350265978909 L 1729.7173246207235 105.75800929251095 L 1729.4906252759374 105.79149281121755 L 1729.2631965823489 105.82394986758491 L 1729.0350612826383 105.85537721593445 L 1728.8062421901448 105.88577171355752 L 1728.5767621865875 105.9151303210297 L 1728.3466442197755 105.94345010251467 L 1728.1159113013134 105.97072822605791 L 1727.884586504301 105.99696196386981 L 1727.6526929610252 106.02214869259844 L 1727.420253860647 106.04628589359189 L 1727.187292446883 106.0693711531502 L 1726.95383201568 106.09140216276666 L 1726.719895912887 106.11237671935864 L 1726.4855075319192 106.13229272548797 L 1726.2506903114192 106.15114818957065 L 1726.0154677329135 106.16894122607596 L 1725.7798633184639 106.1856700557151 L 1725.5439006283157 106.20133300561903 L 1725.307603258541 106.21592850950582 L 1725.0709948386798 106.22945510783724 L 1724.8340990293773 106.24191144796474 L 1724.5969395200168 106.25329628426466 L 1724.3595400263516 106.2636084782629 L 1724.1219242881332 106.2728469987486 L 1723.8841160667375 106.28101092187747 L 1723.6461391427886 106.28809943126396 L 1723.4080173137802 106.29411181806304 L 1723.1697743916968 106.29904748104106 L 1722.9314342006326 106.30290592663582 L 1722.6930205744075 106.30568676900597 L 1722.454557354186 106.30738973006962 L 1722.2160683860907 106.30801463953205 L 1721.9775775188202 106.30756143490284 L 1721.7391086012624 106.3060301615021 L 1721.5006854801102 106.30342097245587 L 1721.262331997477 106.29973412868088 L 1721.0240719885128 106.29496999885845 L 1720.7859292790195 106.28912905939758 L 1720.5479276830697 106.28221189438736 L 1720.3100910006249 106.27421919553852 L 1720.072443015155 106.26515176211427 L 1719.8350074912605 106.25501050085043 L 1719.5978081722958 106.24379642586464 L 1719.3608687779954 106.23151065855508 L 1719.124213002101 106.21815442748823 L 1718.8878645099933 106.20372906827606 L 1718.6518469363243 106.1882360234425 L 1718.4161838826547 106.17167684227908 L 1718.1808989150936 106.15405318069014 L 1717.9460155619415 106.13536680102716 L 1717.7115573113383 106.11561957191253 L 1717.4775476089133 106.09481346805269 L 1717.244009855442 106.0729505700407 L 1717.010967404505 106.05003306414814 L 1716.7784435601534 106.0260632421065 L 1716.5464615745775 106.00104350087803 L 1716.3150446457828 105.97497634241597 L 1716.0842159152694 105.94786437341445 L 1715.8539984657177 105.9197103050478 L 1715.6244153186813 105.89051695269937 L 1715.395489432283 105.86028723568009 L 1715.167243698921 105.82902417693644 L 1714.9397009429783 105.79673090274827 L 1714.7128839185411 105.76341064241608 L 1714.4868153071225 105.72906672793813 L 1714.2615177153955 105.69370259367726 L 1714.0370136729316 105.6573217760174 L 1713.8133256299477 105.61992791301003 L 1713.5904759550617 105.58152474401028 L 1713.3684869330557 105.54211610930304 L 1713.1473807626464 105.50170594971894 L 1712.9271795542672 105.46029830624026 L 1712.7079053278549 105.41789731959686 L 1712.4895800106497 105.37450722985206 L 1712.2722254350015 105.33013237597868 L 1712.0558633361863 105.28477719542511 L 1711.840515350234 105.23844622367163 L 1711.6262030117637 105.1911440937768 L 1711.4129477518306 105.14287553591419 L 1711.200770895783 105.09364537689936 L 1710.9896936611299 105.0434585397072 L 1710.7797371554186 104.99232004297959 L 1710.5709223741246 104.9402350005236 L 1710.3632701985523 104.88720862080007 L 1710.156801393746 104.83324620640276 L 1709.9515366064145 104.77835315352817 L 1709.747496362865 104.72253495143585 L 1709.544701066952 104.66579718189945 L 1709.3431709980364 104.60814551864868 L 1709.1429263089565 104.54958572680184 L 1708.943987024015 104.49012366228926 L 1708.7463730369743 104.42976527126788 L 1708.5501041090683 104.36851658952648 L 1708.3551998670266 104.30638374188221 L 1708.1616798011105 104.24337294156805 L 1707.9695632631658 104.17949048961154 L 1707.778869464686 104.11474277420461 L 1707.589617474892 104.04913627006486 L 1707.4018262188251 103.98267753778805 L 1707.2155144754545 103.91537322319199 L 1707.030700875799 103.84723005665208 L 1706.847403901065 103.77825485242818 L 1706.6656418807968 103.70845450798322 L 1706.4854329910452 103.63783600329349 L 1706.306795252549 103.56640640015061 L 1706.129746528933 103.49417284145538 L 1705.9543045249222 103.42114255050346 L 1705.7804867845707 103.3473228302631 L 1705.6083106895078 103.27272106264479 L 1705.4377934571996 103.19734470776314 L 1705.268952139227 103.1212013031908 L 1705.101803619581 103.04429846320481 L 1704.9363646129746 102.96664387802507 L 1704.7726516631706 102.88824531304537 L 1704.6106811413272 102.8091106080569 L 1704.4504692443618 102.72924767646418 L 1704.2920319933307 102.64866450449387 L 1704.135385231827 102.56736915039596 L 1703.980544624396 102.48536974363815 L 1703.8275256549698 102.40267448409276 L 1703.6763436253175 102.31929164121684 L 1703.5270136535162 102.2352295532252 L 1703.3795506724387 102.15049662625658 L 1703.2339694282603 102.06510133353308 L 1703.0902844789837 101.97905221451278 L 1702.9485101929845 101.89235787403591 L 1702.808660747573 101.80502698146424 L 1702.6707501275773 101.71706826981428 L 1702.5347921239443 101.62849053488388 L 1702.4008003323613 101.53930263437272 L 1702.2687881518955 101.44951348699652 L 1702.1387687836552 101.35913207159521 L 1702.0107552294687 101.26816742623502 L 1701.8847602905848 101.17662864730465 L 1701.7607965663924 101.08452488860574 L 1701.6388764531607 100.9918653604374 L 1701.5190121427993 100.89865932867522 L 1701.4012156216393 100.80491611384473 L 1701.2854986692348 100.71064509018925 L 1701.1718728571848 100.61585568473262 L 1701.0603495479752 100.5205573763364 L 1700.9509398938446 100.424759694752 L 1700.843654835667 100.32847221966773 L 1700.7385051018587 100.2317045797509 L 1700.6355012073057 100.13446645168483 L 1700.5346534523114 100.03676755920131 L 1700.4359719215672 99.93861767210817 L 1700.3394664831444 99.84002660531232 L 1700.2451467875057 99.7410042178383 L 1700.1530222665428 99.64156041184232 L 1700.0631021326308 99.54170513162211 L 1699.9753953777076 99.4414483626225 L 1699.8899107723764 99.34080013043682 L 1699.806656865026 99.23977049980442 L 1699.7256419809783 99.13836957360418 L 1699.6468742216534 99.03660749184422 L 1699.570361463762 98.9344944306479 L 1699.4961113585164 98.83204060123627 L 1699.4241313308646 98.72925624890688 L 1699.35442857875 98.6261516520093 L 1699.2870100723894 98.52273712091731 L 1699.2218825535774 98.41902299699785 L 1699.1590525350116 98.31501965157686 L 1699.0985262996414 98.21073748490224 L 1699.04030990004 98.10618692510373 L 1698.9844091577986 98.0013784271502 L 1698.9308296629451 97.89632247180411 L 1698.8795767733845 97.79102956457344 L 1698.8306556143625 97.68551023466115 L 1698.7840710779549 97.57977503391233 L 1698.7398278225758 97.47383453575894 L 1698.6979302725144 97.3676993341625 L 1698.6583826174906 97.2613800425547 L 1698.621188812237 97.15488729277617 L 1698.586352576103 97.04823173401307 L 1698.5538773926835 96.94142403173245 L 1698.5237665094694 96.8344748666155 L 1698.4960229375242 96.72739493348962 L 1698.4706494511818 96.6201949402589 L 1698.44764858777 96.51288560683331 L 1698.4270226473554 96.40547766405678 L 1698.4087736925153 96.29798185263407 L 1698.3929035481299 96.19040892205675 L 1698.3794138012004 96.08276962952824 L 1698.3683058006902 95.9750747388881 L 1698.35958065739 95.86733501953563 L 1698.3532392438071 95.75956124535298 L 1698.3492821940774 95.65176419362778 L 1698.3477099039028 95.54395464397535" stroke-miterlimit="10" stroke-width="2.7769845610000004" stroke-dasharray=""/></g><g><g/><text fill="black" stroke="none" font-family="sans-serif" font-size="11pt" font-style="normal" font-weight="normal" text-decoration="normal" x="1690.8191315280806" y="123.83569119881818" text-anchor="start" dominant-baseline="alphabetic" xml:space="preserve">Database</text></g></g><g><path fill="white" stroke="black" paint-order="fill stroke markers" d=" M 414.1413692543919 182.64242307881818 L 430.4765725543919 182.64242307881818 L 430.4765725543919 1543.364857968818 L 414.1413692543919 1543.364857968818 L 414.1413692543919 182.64242307881818" stroke-miterlimit="10" stroke-width="1.3612669416666667" stroke-dasharray=""/><path fill="white" stroke="black" paint-order="fill stroke markers" d=" M 1456.169018364315 182.64242307881818 L 1472.504221664315 182.64242307881818 L 1472.504221664315 1543.364857968818 L 1456.169018364315 1543.364857968818 L 1456.169018364315 182.64242307881818" stroke-miterlimit="10" stroke-width="1.3612669416666667" stroke-dasharray=""/><path fill="white" stroke="black" paint-order="fill stroke markers" d=" M 564.921781708556 228.3809923188182 L 581.2569850085561 228.3809923188182 L 581.2569850085561 409.7017489488182 L 564.921781708556 409.7017489488182 L 564.921781708556 228.3809923188182" stroke-miterlimit="10" stroke-width="1.3612669416666667" stroke-dasharray=""/><path fill="white" stroke="black" paint-order="fill stroke markers" d=" M 741.6034463313424 274.1195615588182 L 757.9386496313425 274.1195615588182 L 757.9386496313425 615.5253105288182 L 741.6034463313424 615.5253105288182 L 741.6034463313424 274.1195615588182" stroke-miterlimit="10" stroke-width="1.3612669416666667" stroke-dasharray=""/><path fill="white" stroke="black" paint-order="fill stroke markers" d=" M 890.3252110517851 363.9631797088182 L 906.6604143517852 363.9631797088182 L 906.6604143517852 615.5253105288182 L 890.3252110517851 615.5253105288182 L 890.3252110517851 363.9631797088182" stroke-miterlimit="10" stroke-width="1.3612669416666667" stroke-dasharray=""/><path fill="white" stroke="black" paint-order="fill stroke markers" d=" M 1127.3146607087513 453.8067978588182 L 1143.6498640087514 453.8067978588182 L 1143.6498640087514 1433.918995858818 L 1127.3146607087513 1433.918995858818 L 1127.3146607087513 453.8067978588182" stroke-miterlimit="10" stroke-width="1.3612669416666667" stroke-dasharray=""/><path fill="white" stroke="black" paint-order="fill stroke markers" d=" M 1295.20672935188 499.5453670988182 L 1311.5419326518802 499.5453670988182 L 1311.5419326518802 1002.6696287388179 L 1295.20672935188 1002.6696287388179 L 1295.20672935188 499.5453670988182" stroke-miterlimit="10" stroke-width="1.3612669416666667" stroke-dasharray=""/><path fill="white" stroke="black" paint-order="fill stroke markers" d=" M 1598.001692171018 615.5253105288182 L 1614.3368954710181 615.5253105288182 L 1614.3368954710181 888.3232056388179 L 1598.001692171018 888.3232056388179 L 1598.001692171018 615.5253105288182" stroke-miterlimit="10" stroke-width="1.3612669416666667" stroke-dasharray=""/><path fill="white" stroke="black" paint-order="fill stroke markers" d=" M 1464.336620014315 705.3689286788181 L 1480.6718233143151 705.3689286788181 L 1480.6718233143151 796.846067158818 L 1464.336620014315 796.846067158818 L 1464.336620014315 705.3689286788181" stroke-miterlimit="10" stroke-width="1.3612669416666667" stroke-dasharray=""/><path fill="white" stroke="black" paint-order="fill stroke markers" d=" M 1714.0294748243696 796.846067158818 L 1730.3646781243697 796.846067158818 L 1730.3646781243697 1002.6696287388179 L 1714.0294748243696 1002.6696287388179 L 1714.0294748243696 796.846067158818" stroke-miterlimit="10" stroke-width="1.3612669416666667" stroke-dasharray=""/><path fill="white" stroke="black" paint-order="fill stroke markers" d=" M 422.3089709043919 1046.774677648818 L 438.6441742043919 1046.774677648818 L 438.6441742043919 1138.251816128818 L 422.3089709043919 1138.251816128818 L 422.3089709043919 1046.774677648818" stroke-miterlimit="10" stroke-width="1.3612669416666667" stroke-dasharray=""/><g><text fill="black" stroke="none" font-family="sans-serif" font-size="16pt" font-style="normal" font-weight="normal" text-decoration="normal" x="619.3217697143555" y="24.651306798181814" text-anchor="start" dominant-baseline="alphabetic" xml:space="preserve">SequenzdiagrammK223-QueueTransactionProcessingV2</text></g><g><rect fill="white" stroke="none" x="134.70532529277537" y="161.4066587888182" width="35.859743729257815" height="21.23576429"/><text fill="black" stroke="none" font-family="sans-serif" font-size="11pt" font-style="normal" font-weight="normal" text-decoration="normal" x="137.15560578777536" y="176.10834175881817" text-anchor="start" dominant-baseline="alphabetic" xml:space="preserve">Start</text></g><g><path fill="none" stroke="black" paint-order="fill stroke markers" d=" M 73.50841485 182.64242307881818 L 218.31266208114192 182.64242307881818" stroke-miterlimit="10" stroke-width="1.3612669416666667" stroke-dasharray=""/><g transform="translate(231.76197946480858,182.64242307881818) translate(-231.76197946480858,-182.64242307881818)"><path fill="black" stroke="none" paint-order="stroke fill markers" d=" M 218.1493100481419 175.83608837048484 L 231.76197946480858 182.64242307881818 L 218.1493100481419 189.44875778715152 Z"/></g></g><g><rect fill="white" stroke="none" x="251.09197003647526" y="207.1452280288182" width="143.71940864625" height="21.23576429"/><text fill="black" stroke="none" font-family="sans-serif" font-size="11pt" font-style="normal" font-weight="normal" text-decoration="normal" x="253.54225053147525" y="221.84691099881817" text-anchor="start" dominant-baseline="alphabetic" xml:space="preserve">EnqueueTransaction</text></g><g><path fill="none" stroke="black" paint-order="fill stroke markers" d=" M 231.76197946480858 228.3809923188182 L 400.69205187072527 228.3809923188182" stroke-miterlimit="10" stroke-width="1.3612669416666667" stroke-dasharray=""/><g transform="translate(414.1413692543919,228.3809923188182) translate(-414.1413692543919,-228.3809923188182)"><path fill="black" stroke="none" paint-order="stroke fill markers" d=" M 400.52869983772524 221.57465761048485 L 414.1413692543919 228.3809923188182 L 400.52869983772524 235.18732702715153 Z"/></g></g><g><rect fill="white" stroke="none" x="335.616033990608" y="252.88379726881823" width="125.45169319214844" height="21.23576429"/><text fill="black" stroke="none" font-family="sans-serif" font-size="11pt" font-style="normal" font-weight="normal" text-decoration="normal" x="338.066314485608" y="267.5854802388182" text-anchor="start" dominant-baseline="alphabetic" xml:space="preserve">TrytostartWorker</text></g><g><path fill="none" stroke="black" paint-order="fill stroke markers" d=" M 231.76197946480858 274.1195615588182 L 551.4724643248893 274.1195615588182" stroke-miterlimit="10" stroke-width="1.3612669416666667" stroke-dasharray=""/><g transform="translate(564.921781708556,274.1195615588182) translate(-564.921781708556,-274.1195615588182)"><path fill="black" stroke="none" paint-order="stroke fill markers" d=" M 551.3091122918893 267.31322685048485 L 564.921781708556 274.1195615588182 L 551.3091122918893 280.92589626715153 Z"/></g></g><g><rect fill="white" stroke="none" x="600.5869755802227" y="298.6223665088182" width="121.68648017945313" height="21.23576429"/><text fill="black" stroke="none" font-family="sans-serif" font-size="11pt" font-style="normal" font-weight="normal" text-decoration="normal" x="603.0372560752227" y="313.32404947881815" text-anchor="start" dominant-baseline="alphabetic" xml:space="preserve">TrytoaquireLock</text></g><g><path fill="none" stroke="black" paint-order="fill stroke markers" d=" M 581.2569850085561 319.8581307988182 L 728.1541289476758 319.8581307988182" stroke-miterlimit="10" stroke-width="1.3612669416666667" stroke-dasharray=""/><g transform="translate(741.6034463313424,319.8581307988182) translate(-741.6034463313424,-319.8581307988182)"><path fill="black" stroke="none" paint-order="stroke fill markers" d=" M 727.9907769146757 313.05179609048486 L 741.6034463313424 319.8581307988182 L 727.9907769146757 326.66446550715153 Z"/></g></g><g><rect fill="white" stroke="none" x="638.1511507871237" y="388.4659846588182" width="195.27989448609375" height="21.23576429"/><text fill="black" stroke="none" font-family="sans-serif" font-size="11pt" font-style="normal" font-weight="normal" text-decoration="normal" x="640.6014312821237" y="403.16766762881815" text-anchor="start" dominant-baseline="alphabetic" xml:space="preserve">StartnewThreadforDoWork</text></g><g><path fill="none" stroke="black" paint-order="fill stroke markers" d=" M 581.2569850085561 409.7017489488182 L 876.8758936681185 409.7017489488182" stroke-miterlimit="10" stroke-width="1.3612669416666667" stroke-dasharray=""/><g transform="translate(890.3252110517851,409.7017489488182) translate(-890.3252110517851,-409.7017489488182)"><path fill="black" stroke="none" paint-order="stroke fill markers" d=" M 876.7125416351184 402.89541424048485 L 890.3252110517851 409.7017489488182 L 876.7125416351184 416.50808365715153 Z"/></g></g><g><rect fill="white" stroke="none" x="925.9904049234518" y="478.30960280881817" width="181.99426521363281" height="21.23576429"/><text fill="black" stroke="none" font-family="sans-serif" font-size="11pt" font-style="normal" font-weight="normal" text-decoration="normal" x="928.4406854184518" y="493.01128577881815" text-anchor="start" dominant-baseline="alphabetic" xml:space="preserve">ProcessTransactionQueue</text></g><g><path fill="none" stroke="black" paint-order="fill stroke markers" d=" M 906.6604143517852 499.5453670988182 L 1113.8653433250845 499.5453670988182" stroke-miterlimit="10" stroke-width="1.3612669416666667" stroke-dasharray=""/><g transform="translate(1127.3146607087513,499.5453670988182) translate(-1127.3146607087513,-499.5453670988182)"><path fill="black" stroke="none" paint-order="stroke fill markers" d=" M 1113.7019912920846 492.73903239048485 L 1127.3146607087513 499.5453670988182 L 1113.7019912920846 506.3517018071515 Z"/></g></g><g><rect fill="white" stroke="none" x="1029.2170331170867" y="524.0481720488182" width="143.4330774694922" height="21.23576429"/><text fill="black" stroke="none" font-family="sans-serif" font-size="11pt" font-style="normal" font-weight="normal" text-decoration="normal" x="1031.6673136120867" y="538.7498550188182" text-anchor="start" dominant-baseline="alphabetic" xml:space="preserve">ProcessBatchQueue</text></g><g><path fill="none" stroke="black" paint-order="fill stroke markers" d=" M 906.6604143517852 545.2839363388182 L 1281.7574119682133 545.2839363388182" stroke-miterlimit="10" stroke-width="1.3612669416666667" stroke-dasharray=""/><g transform="translate(1295.20672935188,545.2839363388182) translate(-1295.20672935188,-545.2839363388182)"><path fill="black" stroke="none" paint-order="stroke fill markers" d=" M 1281.5940599352134 538.4776016304849 L 1295.20672935188 545.2839363388182 L 1281.5940599352134 552.0902710471515 Z"/></g></g><g><rect fill="white" stroke="none" x="777.2686402030091" y="594.2895462388182" width="93.72658027710938" height="21.23576429"/><text fill="black" stroke="none" font-family="sans-serif" font-size="11pt" font-style="normal" font-weight="normal" text-decoration="normal" x="779.7189206980091" y="608.9912292088181" text-anchor="start" dominant-baseline="alphabetic" xml:space="preserve">ReleaseLock</text></g><g><path fill="none" stroke="black" paint-order="fill stroke markers" d=" M 890.3252110517851 615.5253105288182 L 771.3879670150092 615.5253105288182" stroke-miterlimit="10" stroke-width="1.3612669416666667" stroke-dasharray=""/><g transform="translate(757.9386496313425,615.5253105288182) translate(-757.9386496313425,-615.5253105288182)"><path fill="black" stroke="none" paint-order="stroke fill markers" d=" M 771.5513190480092 608.7189758204848 L 757.9386496313425 615.5253105288182 L 771.5513190480092 622.3316452371515 Z"/></g></g><g><rect fill="white" stroke="none" x="1393.9285723217224" y="640.0281154788181" width="121.68648017945313" height="21.23576429"/><text fill="black" stroke="none" font-family="sans-serif" font-size="11pt" font-style="normal" font-weight="normal" text-decoration="normal" x="1396.3788528167224" y="654.7297984488181" text-anchor="start" dominant-baseline="alphabetic" xml:space="preserve">TrytoaquireLock</text></g><g><path fill="none" stroke="black" paint-order="fill stroke markers" d=" M 1311.5419326518802 661.2638797688181 L 1584.5523747873513 661.2638797688181" stroke-miterlimit="10" stroke-width="1.3612669416666667" stroke-dasharray=""/><g transform="translate(1598.001692171018,661.2638797688181) translate(-1598.001692171018,-661.2638797688181)"><path fill="black" stroke="none" paint-order="stroke fill markers" d=" M 1584.3890227543513 654.4575450604848 L 1598.001692171018 661.2638797688181 L 1584.3890227543513 668.0702144771515 Z"/></g></g><g><rect fill="white" stroke="none" x="1343.388074207238" y="729.871733628818" width="89.10240425171875" height="21.23576429"/><text fill="black" stroke="none" font-family="sans-serif" font-size="11pt" font-style="normal" font-weight="normal" text-decoration="normal" x="1345.8383547022381" y="744.573416598818" text-anchor="start" dominant-baseline="alphabetic" xml:space="preserve">TryDequeue</text></g><g><path fill="none" stroke="black" paint-order="fill stroke markers" d=" M 1311.5419326518802 751.107497918818 L 1450.8873026306483 751.107497918818" stroke-miterlimit="10" stroke-width="1.3612669416666667" stroke-dasharray=""/><g transform="translate(1464.336620014315,751.107497918818) translate(-1464.336620014315,-751.107497918818)"><path fill="black" stroke="none" paint-order="stroke fill markers" d=" M 1450.7239505976484 744.3011632104847 L 1464.336620014315 751.107497918818 L 1450.7239505976484 757.9138326271514 Z"/></g></g><g><rect fill="white" stroke="none" x="1334.9557240485467" y="775.6103028688179" width="105.96710456910156" height="21.23576429"/><text fill="black" stroke="none" font-family="sans-serif" font-size="11pt" font-style="normal" font-weight="normal" text-decoration="normal" x="1337.4060045435467" y="790.3119858388179" text-anchor="start" dominant-baseline="alphabetic" xml:space="preserve">DequeueBatch</text></g><g><path fill="none" stroke="black" paint-order="fill stroke markers" d=" M 1464.336620014315 796.846067158818 L 1324.991250035547 796.846067158818" stroke-miterlimit="10" stroke-width="1.3612669416666667" stroke-dasharray=""/><g transform="translate(1311.5419326518802,796.846067158818) translate(-1311.5419326518802,-796.846067158818)"><path fill="black" stroke="none" paint-order="stroke fill markers" d=" M 1325.1546020685469 790.0397324504846 L 1311.5419326518802 796.846067158818 L 1325.1546020685469 803.6524018671513 Z"/></g></g><g><rect fill="white" stroke="none" x="1424.6411101938086" y="821.3488721088179" width="176.28918708863281" height="21.23576429"/><text fill="black" stroke="none" font-family="sans-serif" font-size="11pt" font-style="normal" font-weight="normal" text-decoration="normal" x="1427.0913906888086" y="836.0505550788179" text-anchor="start" dominant-baseline="alphabetic" xml:space="preserve">RunTransactionsinBatch</text></g><g><path fill="none" stroke="black" paint-order="fill stroke markers" d=" M 1311.5419326518802 842.5846363988179 L 1700.5801574407028 842.5846363988179" stroke-miterlimit="10" stroke-width="1.3612669416666667" stroke-dasharray=""/><g transform="translate(1714.0294748243696,842.5846363988179) translate(-1714.0294748243696,-842.5846363988179)"><path fill="black" stroke="none" paint-order="stroke fill markers" d=" M 1700.416805407703 835.7783016904846 L 1714.0294748243696 842.5846363988179 L 1700.416805407703 849.3909711071512 Z"/></g></g><g><rect fill="white" stroke="none" x="1407.9085222728943" y="867.0874413488178" width="93.72658027710938" height="21.23576429"/><text fill="black" stroke="none" font-family="sans-serif" font-size="11pt" font-style="normal" font-weight="normal" text-decoration="normal" x="1410.3588027678943" y="881.7891243188178" text-anchor="start" dominant-baseline="alphabetic" xml:space="preserve">ReleaseLock</text></g><g><path fill="none" stroke="black" paint-order="fill stroke markers" d=" M 1311.5419326518802 888.3232056388179 L 1584.5523747873513 888.3232056388179" stroke-miterlimit="10" stroke-width="1.3612669416666667" stroke-dasharray=""/><g transform="translate(1598.001692171018,888.3232056388179) translate(-1598.001692171018,-888.3232056388179)"><path fill="black" stroke="none" paint-order="stroke fill markers" d=" M 1584.3890227543513 881.5168709304845 L 1598.001692171018 888.3232056388179 L 1584.3890227543513 895.1295403471512 Z"/></g></g><g><rect fill="white" stroke="none" x="777.1132657826145" y="981.4338644488179" width="233.31135810914063" height="21.23576429"/><text fill="black" stroke="none" font-family="sans-serif" font-size="11pt" font-style="normal" font-weight="normal" text-decoration="normal" x="779.5635462776145" y="996.1355474188179" text-anchor="start" dominant-baseline="alphabetic" xml:space="preserve">CallbackwithResultofTransaction</text></g><g><path fill="none" stroke="black" paint-order="fill stroke markers" d=" M 1714.0294748243696 1002.6696287388179 L 86.95773223366666 1002.6696287388179" stroke-miterlimit="10" stroke-width="1.3612669416666667" stroke-dasharray=""/><g transform="translate(73.50841485,1002.6696287388179) translate(-73.50841485,-1002.6696287388179)"><path fill="black" stroke="none" paint-order="stroke fill markers" d=" M 87.12108426666666 995.8632940304846 L 73.50841485 1002.6696287388179 L 87.12108426666666 1009.4759634471512 Z"/></g></g><g><rect fill="white" stroke="none" x="738.4282153307122" y="1071.277482598818" width="89.10240425171875" height="21.23576429"/><text fill="black" stroke="none" font-family="sans-serif" font-size="11pt" font-style="normal" font-weight="normal" text-decoration="normal" x="740.8784958257122" y="1085.9791655688182" text-anchor="start" dominant-baseline="alphabetic" xml:space="preserve">TryDequeue</text></g><g><path fill="none" stroke="black" paint-order="fill stroke markers" d=" M 1127.3146607087513 1092.513246888818 L 452.09349158805855 1092.513246888818" stroke-miterlimit="10" stroke-width="1.3612669416666667" stroke-dasharray=""/><g transform="translate(438.6441742043919,1092.513246888818) translate(-438.6441742043919,-1092.513246888818)"><path fill="black" stroke="none" paint-order="stroke fill markers" d=" M 452.2568436210586 1085.7069121804848 L 438.6441742043919 1092.513246888818 L 452.2568436210586 1099.3195815971512 Z"/></g></g><g><rect fill="white" stroke="none" x="710.7152712999505" y="1117.0160518388182" width="144.5282923132422" height="21.23576429"/><text fill="black" stroke="none" font-family="sans-serif" font-size="11pt" font-style="normal" font-weight="normal" text-decoration="normal" x="713.1655517949505" y="1131.7177348088182" text-anchor="start" dominant-baseline="alphabetic" xml:space="preserve">DequeueTransaction</text></g><g><path fill="none" stroke="black" paint-order="fill stroke markers" d=" M 438.6441742043919 1138.251816128818 L 1113.8653433250845 1138.251816128818" stroke-miterlimit="10" stroke-width="1.3612669416666667" stroke-dasharray=""/><g transform="translate(1127.3146607087513,1138.251816128818) translate(-1127.3146607087513,-1138.251816128818)"><path fill="black" stroke="none" paint-order="stroke fill markers" d=" M 1113.7019912920846 1131.4454814204848 L 1127.3146607087513 1138.251816128818 L 1113.7019912920846 1145.0581508371513 Z"/></g></g><g><rect fill="white" stroke="none" x="1162.979854580418" y="1206.859669988818" width="88.84469856324219" height="21.23576429"/><text fill="black" stroke="none" font-family="sans-serif" font-size="11pt" font-style="normal" font-weight="normal" text-decoration="normal" x="1165.430135075418" y="1221.5613529588181" text-anchor="start" dominant-baseline="alphabetic" xml:space="preserve">AddtoBatch</text></g><g><path fill="none" stroke="black" paint-order="fill stroke markers" d=" M 1143.6498640087514 1228.0954342788182 L 1208.9906772087513 1228.0954342788182 L 1208.9906772087513 1249.331198568818 L 1157.0991813924181 1249.331198568818" stroke-miterlimit="10" stroke-width="1.3612669416666667" stroke-dasharray=""/><g transform="translate(1143.6498640087514,1249.331198568818) translate(-1143.6498640087514,-1249.331198568818)"><path fill="black" stroke="none" paint-order="stroke fill markers" d=" M 1157.262533425418 1242.5248638604849 L 1143.6498640087514 1249.331198568818 L 1157.262533425418 1256.1375332771513 Z"/></g></g><g><rect fill="white" stroke="none" x="707.0359123084465" y="1317.9390524288183" width="143.71940864625" height="21.23576429"/><text fill="black" stroke="none" font-family="sans-serif" font-size="11pt" font-style="normal" font-weight="normal" text-decoration="normal" x="709.4861928034466" y="1332.6407353988184" text-anchor="start" dominant-baseline="alphabetic" xml:space="preserve">EnqueueTransaction</text></g><g><path fill="none" stroke="black" paint-order="fill stroke markers" d=" M 1127.3146607087513 1339.1748167188182 L 443.92588993805856 1339.1748167188182" stroke-miterlimit="10" stroke-width="1.3612669416666667" stroke-dasharray=""/><g transform="translate(430.4765725543919,1339.1748167188182) translate(-430.4765725543919,-1339.1748167188182)"><path fill="black" stroke="none" paint-order="stroke fill markers" d=" M 444.0892419710586 1332.368482010485 L 430.4765725543919 1339.1748167188182 L 444.0892419710586 1345.9811514271514 Z"/></g></g><g><rect fill="white" stroke="none" x="1247.3303307354784" y="1412.6832315688182" width="105.15822090210938" height="21.23576429"/><text fill="black" stroke="none" font-family="sans-serif" font-size="11pt" font-style="normal" font-weight="normal" text-decoration="normal" x="1249.7806112304784" y="1427.3849145388183" text-anchor="start" dominant-baseline="alphabetic" xml:space="preserve">EnqueueBatch</text></g><g><path fill="none" stroke="black" paint-order="fill stroke markers" d=" M 1143.6498640087514 1433.918995858818 L 1442.7197009806482 1433.918995858818" stroke-miterlimit="10" stroke-width="1.3612669416666667" stroke-dasharray=""/><g transform="translate(1456.169018364315,1433.918995858818) translate(-1456.169018364315,-1433.918995858818)"><path fill="black" stroke="none" paint-order="stroke fill markers" d=" M 1442.5563489476483 1427.1126611504849 L 1456.169018364315 1433.918995858818 L 1442.5563489476483 1440.7253305671513 Z"/></g></g><g><g/><path fill="none" stroke="black" paint-order="fill stroke markers" d=" M 16.335203299999996 344.3609357488182 L 1795.7054913243696 344.3609357488182 L 1795.7054913243696 1502.526849718818 L 16.335203299999996 1502.526849718818 L 16.335203299999996 344.3609357488182 Z" stroke-miterlimit="10" stroke-width="2.3336004714285714" stroke-dasharray=""/><path fill="white" stroke="black" paint-order="fill stroke markers" d=" M 16.335203299999996 344.3609357488182 L 16.335203299999996 363.9631797088182 L 62.69440689707031 363.9631797088182 L 72.49552887707031 354.1620577288182 L 72.49552887707031 344.3609357488182 L 16.335203299999996 344.3609357488182" stroke-miterlimit="10" stroke-width="2.3336004714285714" stroke-dasharray=""/><text fill="black" stroke="none" font-family="sans-serif" font-size="8.8pt" font-style="normal" font-weight="bold" text-decoration="normal" x="32.67040659999999" y="357.4290983888182" text-anchor="start" dominant-baseline="alphabetic" xml:space="preserve">alt</text><g><rect fill="white" stroke="none" x="86.38045168207032" y="345.6677520128182" width="55.079470291757815" height="16.988611432000003"/></g><text fill="black" stroke="none" font-family="sans-serif" font-size="8.8pt" font-style="normal" font-weight="bold" text-decoration="normal" x="88.83073217707032" y="357.4290983888182" text-anchor="start" dominant-baseline="alphabetic" xml:space="preserve">[aquired]</text><g><path fill="none" stroke="black" paint-order="fill stroke markers" d=" M 16.335203299999996 1458.4218008088183 L 1795.7054913243696 1458.4218008088183" stroke-miterlimit="10" stroke-width="2.3336004714285714" stroke-dasharray="4.083800825"/></g><g/><g><rect fill="white" stroke="none" x="86.38045168207032" y="1459.7286170728182" width="121.52456916871094" height="16.988611432000003"/></g><text fill="black" stroke="none" font-family="sans-serif" font-size="8.8pt" font-style="normal" font-weight="bold" text-decoration="normal" x="88.83073217707032" y="1471.4899634488181" text-anchor="start" dominant-baseline="alphabetic" xml:space="preserve">[locked(donothing)]</text></g><g><g/><path fill="none" stroke="black" paint-order="fill stroke markers" d=" M 841.3196011517852 434.2045538988182 L 1352.37994090188 434.2045538988182 L 1352.37994090188 569.7867412888182 L 841.3196011517852 569.7867412888182 L 841.3196011517852 434.2045538988182 Z" stroke-miterlimit="10" stroke-width="2.3336004714285714" stroke-dasharray=""/><path fill="white" stroke="black" paint-order="fill stroke markers" d=" M 841.3196011517852 434.2045538988182 L 841.3196011517852 453.8067978588182 L 898.7444022830351 453.8067978588182 L 908.5455242630351 444.0056758788182 L 908.5455242630351 434.2045538988182 L 841.3196011517852 434.2045538988182" stroke-miterlimit="10" stroke-width="2.3336004714285714" stroke-dasharray=""/><text fill="black" stroke="none" font-family="sans-serif" font-size="8.8pt" font-style="normal" font-weight="bold" text-decoration="normal" x="857.6548044517851" y="447.2727165388182" text-anchor="start" dominant-baseline="alphabetic" xml:space="preserve">loop</text><g><rect fill="white" stroke="none" x="922.430447068035" y="435.5113701628182" width="122.24051155152344" height="16.988611432000003"/></g><text fill="black" stroke="none" font-family="sans-serif" font-size="8.8pt" font-style="normal" font-weight="bold" text-decoration="normal" x="924.8807275630351" y="447.2727165388182" text-anchor="start" dominant-baseline="alphabetic" xml:space="preserve">[whileworkavailabe]</text></g><g><g/><path fill="none" stroke="black" paint-order="fill stroke markers" d=" M 1238.0335178018802 685.766684718818 L 1771.2026863743695 685.766684718818 L 1771.2026863743695 956.931059498818 L 1238.0335178018802 956.931059498818 L 1238.0335178018802 685.766684718818 Z" stroke-miterlimit="10" stroke-width="2.3336004714285714" stroke-dasharray=""/><path fill="white" stroke="black" paint-order="fill stroke markers" d=" M 1238.0335178018802 685.766684718818 L 1238.0335178018802 705.3689286788181 L 1284.3927213989505 705.3689286788181 L 1294.1938433789505 695.567806698818 L 1294.1938433789505 685.766684718818 L 1238.0335178018802 685.766684718818" stroke-miterlimit="10" stroke-width="2.3336004714285714" stroke-dasharray=""/><text fill="black" stroke="none" font-family="sans-serif" font-size="8.8pt" font-style="normal" font-weight="bold" text-decoration="normal" x="1254.3687211018803" y="698.834847358818" text-anchor="start" dominant-baseline="alphabetic" xml:space="preserve">alt</text><g><rect fill="white" stroke="none" x="1308.0787661839506" y="687.073500982818" width="55.079470291757815" height="16.988611432000003"/></g><text fill="black" stroke="none" font-family="sans-serif" font-size="8.8pt" font-style="normal" font-weight="bold" text-decoration="normal" x="1310.5290466789506" y="698.834847358818" text-anchor="start" dominant-baseline="alphabetic" xml:space="preserve">[aquired]</text><g><path fill="none" stroke="black" paint-order="fill stroke markers" d=" M 1238.0335178018802 912.8260105888179 L 1771.2026863743695 912.8260105888179" stroke-miterlimit="10" stroke-width="2.3336004714285714" stroke-dasharray="4.083800825"/></g><g/><g><rect fill="white" stroke="none" x="1308.0787661839506" y="914.1328268528179" width="121.52456916871094" height="16.988611432000003"/></g><text fill="black" stroke="none" font-family="sans-serif" font-size="8.8pt" font-style="normal" font-weight="bold" text-decoration="normal" x="1310.5290466789506" y="925.8941732288179" text-anchor="start" dominant-baseline="alphabetic" xml:space="preserve">[locked(donothing)]</text></g><g/><g><g/><path fill="none" stroke="black" paint-order="fill stroke markers" d=" M 332.4653527543919 1027.172433688818 L 1273.8770775986602 1027.172433688818 L 1273.8770775986602 1388.180426618818 L 332.4653527543919 1388.180426618818 L 332.4653527543919 1027.172433688818 Z" stroke-miterlimit="10" stroke-width="2.3336004714285714" stroke-dasharray=""/><path fill="white" stroke="black" paint-order="fill stroke markers" d=" M 332.4653527543919 1027.172433688818 L 332.4653527543919 1046.774677648818 L 389.8901538856419 1046.774677648818 L 399.6912758656419 1036.973555668818 L 399.6912758656419 1027.172433688818 L 332.4653527543919 1027.172433688818" stroke-miterlimit="10" stroke-width="2.3336004714285714" stroke-dasharray=""/><text fill="black" stroke="none" font-family="sans-serif" font-size="8.8pt" font-style="normal" font-weight="bold" text-decoration="normal" x="348.8005560543919" y="1040.240596328818" text-anchor="start" dominant-baseline="alphabetic" xml:space="preserve">loop</text><g><rect fill="white" stroke="none" x="413.5761986706419" y="1028.479249952818" width="250.95535530152344" height="16.988611432000003"/></g><text fill="black" stroke="none" font-family="sans-serif" font-size="8.8pt" font-style="normal" font-weight="bold" text-decoration="normal" x="416.0264791656419" y="1040.240596328818" text-anchor="start" dominant-baseline="alphabetic" xml:space="preserve">[whileQueuenotemptyandBatchSize&lt;10]</text></g><g><g/><path fill="none" stroke="black" paint-order="fill stroke markers" d=" M 356.9681577043919 1162.7546210788182 L 1257.54187429866 1162.7546210788182 L 1257.54187429866 1363.6776216688181 L 356.9681577043919 1363.6776216688181 L 356.9681577043919 1162.7546210788182 Z" stroke-miterlimit="10" stroke-width="2.3336004714285714" stroke-dasharray=""/><path fill="white" stroke="black" paint-order="fill stroke markers" d=" M 356.9681577043919 1162.7546210788182 L 356.9681577043919 1182.3568650388181 L 403.3273613014622 1182.3568650388181 L 413.1284832814622 1172.5557430588183 L 413.1284832814622 1162.7546210788182 L 356.9681577043919 1162.7546210788182" stroke-miterlimit="10" stroke-width="2.3336004714285714" stroke-dasharray=""/><text fill="black" stroke="none" font-family="sans-serif" font-size="8.8pt" font-style="normal" font-weight="bold" text-decoration="normal" x="373.3033610043919" y="1175.822783718818" text-anchor="start" dominant-baseline="alphabetic" xml:space="preserve">alt</text><g><rect fill="white" stroke="none" x="427.01340608646217" y="1164.0614373428182" width="145.66612495484375" height="16.988611432000003"/></g><text fill="black" stroke="none" font-family="sans-serif" font-size="8.8pt" font-style="normal" font-weight="bold" text-decoration="normal" x="429.4636865814622" y="1175.822783718818" text-anchor="start" dominant-baseline="alphabetic" xml:space="preserve">[affectedIdsnotinBatch]</text><g><path fill="none" stroke="black" paint-order="fill stroke markers" d=" M 356.9681577043919 1273.8340035188182 L 1257.54187429866 1273.8340035188182" stroke-miterlimit="10" stroke-width="2.3336004714285714" stroke-dasharray="4.083800825"/></g><g/></g><g/><g/></g><g/><g/><g/><g/><g/><g/><g/><g/><g/><g/><g/></g></svg>